<?xml version="1.0" encoding="utf-8"?>
<!-- Generator: Adobe Illustrator 21.0.0, SVG Export Plug-In . SVG Version: 6.00 Build 0)  -->
<svg version="1.1" id="Layer_1" xmlns="http://www.w3.org/2000/svg" xmlns:xlink="http://www.w3.org/1999/xlink" x="0px" y="0px"
	 viewBox="0 0 200 200" style="enable-background:new 0 0 200 200;" xml:space="preserve">
<style type="text/css">
	.st0{fill:url(#SVGID_1_);}
	.st1{fill:url(#SVGID_2_);}
	.st2{fill:#191717;}
</style>
<g>
	<g>
		<linearGradient id="SVGID_1_" gradientUnits="userSpaceOnUse" x1="-2.6263" y1="153.8752" x2="35.649" y2="82.2257">
			<stop  offset="0" style="stop-color:#2A3891"/>
			<stop  offset="0.2887" style="stop-color:#1B66AB"/>
			<stop  offset="0.6071" style="stop-color:#0C92C5"/>
			<stop  offset="0.855" style="stop-color:#03ADD4"/>
			<stop  offset="1" style="stop-color:#00B7DA"/>
		</linearGradient>
		<path class="st0" d="M1.2,127.6c0.2,0,24-44.5,28.2-52.4c0.8-1.6,2.3-2.7,4-3.2c0.4-0.1,0.9-0.2,1.4-0.2c2.9,0,16.5,0,16.5,0
			c-0.6,1.2-1.3,2.4-1.9,3.6c-1.6,3-3.2,5.9-4.9,8.9c-2.1,3.8-4.2,7.7-6.3,11.5c-2.1,3.8-4.2,7.6-6.3,11.4c-1.6,2.9-3.2,5.8-4.8,8.7
			c-1.4,2.6-2.9,4.8-5.2,6.7c-2.3,1.9-4.9,3.3-7.8,4.1c-1.1,0.3-2.2,0.5-3.3,0.6C2.1,127.9,1.2,127.6,1.2,127.6z"/>
		<linearGradient id="SVGID_2_" gradientUnits="userSpaceOnUse" x1="36.038" y1="92.9459" x2="57.1983" y2="116.7513">
			<stop  offset="0" style="stop-color:#2A3891"/>
			<stop  offset="0.2416" style="stop-color:#1E5EA7"/>
			<stop  offset="0.5869" style="stop-color:#0E8EC2"/>
			<stop  offset="0.8508" style="stop-color:#04ACD4"/>
			<stop  offset="1" style="stop-color:#00B7DA"/>
		</linearGradient>
		<path class="st1" d="M31.7,107.7c0,0,4.3-2.4,6.5,0.6c2.2,2.9,5.5,11.2,8.4,13.6s8.2,5,12.5,5.6c4.3,0.7,9.6,0.6,9.6,0.6L45,83.5
			L31.7,107.7z"/>
	</g>
	<g>
		<path class="st2" d="M71.5,84.9h2.6l7.9,16.6h-2.7l-1.1-2.4h-5c-3,0-4.6,0.9-4.9,1.6l-0.4,0.8h-2.6l7.1-14.6L71.5,84.9z
			 M77.2,96.7l-3.6-6.9L70,97.7c0.6-0.5,1.9-0.9,4.2-0.9H77.2z"/>
		<path class="st2" d="M85.7,95.2v-10h2.4v10c0,2.8,1.8,4.3,5,4.3c3.2,0,5-1.5,5-4.3v-10h2.4v10c0,4.2-2.7,6.7-7.3,6.7
			C88.4,101.9,85.7,99.4,85.7,95.2z"/>
		<path class="st2" d="M104.7,85.2h8.3c4.4,0,7.7,3.7,7.7,8.1c0,2.2-0.9,4.5-2.4,6.1c-1.5,1.6-3,2.2-5.2,2.2h-6V87.6h-1.3
			L104.7,85.2z M109.3,99.1h3.7c3.2,0,5.2-2.6,5.2-5.7c0-3.2-1.9-5.9-5.3-5.9h-3.7V99.1z"/>
		<path class="st2" d="M128.8,84.9h2.6l7.9,16.6h-2.7l-1.1-2.4h-5c-3,0-4.6,0.9-4.9,1.6l-0.4,0.8h-2.6l7.1-14.6L128.8,84.9z
			 M134.5,96.7l-3.6-6.9l-3.6,7.8c0.6-0.5,1.9-0.9,4.2-0.9H134.5z"/>
		<path class="st2" d="M155.1,89.1c-1.2-1.2-2.9-2-4.8-2c-3.6,0-6.4,2.6-6.4,6.3c0,3.5,3,6.1,6.5,6.1c2.1,0,4-1,5.2-2.6l1.5,2
			c-1.6,1.8-4,3-6.7,3c-4.9,0-8.8-3.9-8.8-8.8c0-4.8,4.1-8.4,8.8-8.4c2.5,0,4.7,1,6.3,2.6L155.1,89.1z"/>
		<path class="st2" d="M161.6,101.5V85.2h2.3v16.3H161.6z"/>
		<path class="st2" d="M176.2,87.6v13.9h-2.3V87.6h-5.8v-2.4H182v2.4H176.2z"/>
		<path class="st2" d="M196.1,85.2h2.7c-1.6,3.6-3.7,6.6-6.1,9.3v7.1h-2.4v-7.1c-2.4-2.6-4.5-5.6-6.1-9.3h2.7
			c0.9,2.5,2.6,5.1,4.5,7.2C193.5,90.3,195.2,87.7,196.1,85.2z"/>
	</g>
	<g>
		<path class="st2" d="M79.1,114.5h-1.3v-6.2h1.3V114.5z"/>
		<path class="st2" d="M86.9,108.2v1.1H85v5.1h-1.3v-5.1h-1.9v-1.1H86.9z"/>
		<path class="st2" d="M95,112.5c0,0.3,0.1,0.5,0.2,0.6c0.2,0.3,0.6,0.4,1.1,0.4c0.3,0,0.6,0,0.8-0.1c0.4-0.1,0.6-0.4,0.6-0.7
			c0-0.2-0.1-0.4-0.3-0.5c-0.2-0.1-0.5-0.2-0.9-0.3l-0.7-0.1c-0.7-0.1-1.1-0.3-1.4-0.5c-0.4-0.3-0.6-0.7-0.6-1.3
			c0-0.6,0.2-1,0.6-1.4c0.4-0.4,1-0.6,1.8-0.6c0.7,0,1.2,0.2,1.7,0.5c0.5,0.3,0.7,0.8,0.7,1.5h-1.2c0-0.4-0.2-0.6-0.5-0.8
			c-0.2-0.1-0.5-0.2-0.8-0.2c-0.3,0-0.6,0.1-0.8,0.2c-0.2,0.1-0.3,0.3-0.3,0.6c0,0.2,0.1,0.4,0.3,0.5c0.1,0.1,0.4,0.2,0.8,0.3
			l1.1,0.3c0.5,0.1,0.8,0.3,1.1,0.5c0.4,0.3,0.6,0.7,0.6,1.3c0,0.6-0.2,1-0.7,1.4c-0.4,0.4-1.1,0.6-1.9,0.6c-0.8,0-1.5-0.2-1.9-0.6
			c-0.5-0.4-0.7-0.9-0.7-1.5H95z"/>
		<path class="st2" d="M106.6,113.9c-0.5,0.5-1.1,0.7-2,0.7c-0.9,0-1.6-0.2-2-0.7c-0.6-0.6-0.9-1.4-0.9-2.6c0-1.1,0.3-2,0.9-2.6
			c0.5-0.5,1.1-0.7,2-0.7c0.9,0,1.6,0.2,2,0.7c0.6,0.6,0.9,1.4,0.9,2.6C107.6,112.5,107.3,113.3,106.6,113.9z M105.8,113
			c0.3-0.4,0.5-0.9,0.5-1.6c0-0.7-0.2-1.2-0.5-1.6c-0.3-0.4-0.7-0.6-1.2-0.6c-0.5,0-0.9,0.2-1.2,0.6c-0.3,0.4-0.5,0.9-0.5,1.6
			s0.2,1.2,0.5,1.6c0.3,0.4,0.7,0.6,1.2,0.6C105.1,113.5,105.5,113.3,105.8,113z"/>
		<path class="st2" d="M110.6,108.2h1.3v5.1h3.1v1.1h-4.4V108.2z"/>
		<path class="st2" d="M117.9,108.2h1.3v3.8c0,0.4,0.1,0.7,0.2,0.9c0.2,0.3,0.5,0.5,1,0.5c0.5,0,0.9-0.2,1-0.5
			c0.1-0.2,0.2-0.5,0.2-0.9v-3.8h1.3v3.8c0,0.7-0.1,1.2-0.3,1.5c-0.4,0.7-1.1,1-2.2,1c-1.1,0-1.8-0.3-2.2-1
			c-0.2-0.4-0.3-0.9-0.3-1.5V108.2z"/>
		<path class="st2" d="M130.7,108.2v1.1h-1.9v5.1h-1.3v-5.1h-1.9v-1.1H130.7z"/>
		<path class="st2" d="M134.7,114.5h-1.3v-6.2h1.3V114.5z"/>
		<path class="st2" d="M142.7,113.9c-0.5,0.5-1.1,0.7-2,0.7c-0.9,0-1.6-0.2-2-0.7c-0.6-0.6-0.9-1.4-0.9-2.6c0-1.1,0.3-2,0.9-2.6
			c0.5-0.5,1.1-0.7,2-0.7c0.9,0,1.6,0.2,2,0.7c0.6,0.6,0.9,1.4,0.9,2.6C143.6,112.5,143.3,113.3,142.7,113.9z M141.9,113
			c0.3-0.4,0.5-0.9,0.5-1.6c0-0.7-0.2-1.2-0.5-1.6c-0.3-0.4-0.7-0.6-1.2-0.6c-0.5,0-0.9,0.2-1.2,0.6c-0.3,0.4-0.5,0.9-0.5,1.6
			s0.2,1.2,0.5,1.6s0.7,0.6,1.2,0.6C141.2,113.5,141.6,113.3,141.9,113z"/>
		<path class="st2" d="M146.6,108.2h1.4l2.5,4.3v-4.3h1.2v6.2h-1.3l-2.5-4.4v4.4h-1.2V108.2z"/>
		<path class="st2" d="M155.8,112.5c0,0.3,0.1,0.5,0.2,0.6c0.2,0.3,0.6,0.4,1.1,0.4c0.3,0,0.6,0,0.8-0.1c0.4-0.1,0.6-0.4,0.6-0.7
			c0-0.2-0.1-0.4-0.3-0.5c-0.2-0.1-0.5-0.2-0.9-0.3l-0.7-0.1c-0.7-0.1-1.1-0.3-1.4-0.5c-0.4-0.3-0.6-0.7-0.6-1.3
			c0-0.6,0.2-1,0.6-1.4c0.4-0.4,1-0.6,1.8-0.6c0.7,0,1.2,0.2,1.7,0.5c0.5,0.3,0.7,0.8,0.7,1.5h-1.2c0-0.4-0.2-0.6-0.5-0.8
			c-0.2-0.1-0.5-0.2-0.8-0.2c-0.3,0-0.6,0.1-0.8,0.2c-0.2,0.1-0.3,0.3-0.3,0.6c0,0.2,0.1,0.4,0.3,0.5c0.1,0.1,0.4,0.2,0.8,0.3
			l1.1,0.3c0.5,0.1,0.8,0.3,1.1,0.5c0.4,0.3,0.6,0.7,0.6,1.3c0,0.6-0.2,1-0.7,1.4c-0.4,0.4-1.1,0.6-1.9,0.6c-0.8,0-1.5-0.2-1.9-0.6
			c-0.5-0.4-0.7-0.9-0.7-1.5H155.8z"/>
		<path class="st2" d="M167.1,108.2h1.3v5.1h3.1v1.1h-4.4V108.2z"/>
		<path class="st2" d="M178.3,108.2v1.1h-1.9v5.1h-1.3v-5.1h-1.9v-1.1H178.3z"/>
		<path class="st2" d="M184.7,108.4c0.4,0.1,0.8,0.4,1.1,0.8c0.2,0.3,0.4,0.6,0.4,1s0.1,0.7,0.1,1c0,0.8-0.2,1.5-0.5,2.1
			c-0.4,0.8-1.1,1.2-2.1,1.2h-2.7v-6.2h2.7C184.1,108.3,184.5,108.3,184.7,108.4z M182.3,109.3v4.1h1.2c0.6,0,1-0.3,1.3-0.9
			c0.1-0.3,0.2-0.7,0.2-1.2c0-0.6-0.1-1.1-0.3-1.5s-0.6-0.5-1.2-0.5H182.3z"/>
	</g>
</g>
</svg>
