<svg width="32" height="32" viewBox="0 0 32 32" fill="none" xmlns="http://www.w3.org/2000/svg">
<path fill-rule="evenodd" clip-rule="evenodd" d="M22.7162 16.9415H17.0692V22.5886H15.1868V16.9415H9.53977V15.0592H15.1868V9.41211H17.0692V15.0592H22.7162V16.9415Z" fill="#FDFDFD"/>
<path d="M0.102895 14.1177C0.0343498 14.7223 -4.61793e-06 15.3304 4.6559e-10 15.939C4.65585e-10 24.7501 7.19329 32 15.9339 32C18.5866 32.0001 21.1973 31.3328 23.5294 30.0585L22.9884 29.0528C20.8255 30.2336 18.4038 30.8502 15.944 30.8466C7.76389 30.8466 1.1334 24.1624 1.1334 15.9178C1.13356 15.3594 1.16453 14.8015 1.22616 14.2465L0.102895 14.1177Z" fill="white"/>
<path d="M16.0728 0.00229613C13.4529 0.00255831 10.8735 0.636821 8.56263 1.849C6.25174 3.06117 4.2806 4.81391 2.82353 6.9522L3.74085 7.55458C5.08137 5.57035 6.8979 3.94008 9.03061 2.8072C11.1633 1.67433 13.5469 1.07357 15.9715 1.05779H16.0759C24.1299 1.05779 30.7631 7.4566 30.8839 15.3778C30.9296 18.0434 30.2248 20.6696 28.8474 22.9668L29.8302 23.5294C31.2515 21.1366 32.0003 18.4159 32 15.6457C32 7.06242 24.808 0 16.0681 0L16.0728 0.00229613Z" fill="white"/>
</svg>
