<svg width="18" height="18" viewBox="0 0 18 18" fill="none" xmlns="http://www.w3.org/2000/svg">
<path d="M16.2368 11.4553L16.2364 11.4549C15.5995 10.8182 14.7349 10.4602 13.8338 10.4602H13.8325C12.9309 10.4602 12.0667 10.8181 11.4291 11.455C10.7923 12.0913 10.4342 12.9549 10.4342 13.8544V13.8558C10.4342 14.7558 10.7922 15.6189 11.4292 16.2559L16.2368 11.4553ZM16.2368 11.4553C16.8741 12.0915 17.2322 12.9549 17.2322 13.8544V13.8558C17.2322 14.7558 16.8742 15.6187 16.2366 16.2557C15.5997 16.8919 14.7349 17.2499 13.8338 17.2499H13.8325C12.9311 17.2499 12.067 16.8921 11.4293 16.256L16.2368 11.4553ZM16.8612 1.13957L16.8603 1.13873C16.6118 0.890006 16.274 0.75 15.921 0.75H11.7809C11.429 0.75 11.0909 0.889759 10.8412 1.13904L16.8612 1.13957ZM16.8612 1.13957C17.1101 1.38788 17.25 1.72494 17.25 2.07691M16.8612 1.13957L17.25 2.07691M7.15845 7.16903L7.15929 7.16819C7.40824 6.91989 7.5481 6.58278 7.5481 6.23085V2.09483C7.5481 1.74392 7.40841 1.40645 7.15878 1.15699C6.90955 0.908206 6.57135 0.767926 6.21912 0.767926H2.07898C1.72796 0.767926 1.38959 0.90787 1.13924 1.15707C0.889794 1.40718 0.75 1.74487 0.75 2.09483V6.23085C0.75 6.58208 0.890118 6.91954 1.13912 7.1685L7.15845 7.16903ZM7.15845 7.16903C6.90987 7.41776 6.57212 7.55776 6.21912 7.55776H2.07898C1.72715 7.55776 1.38908 7.41801 1.13933 7.16871L7.15845 7.16903ZM17.25 2.07691V6.21292C17.25 6.56372 17.1104 6.9011 16.8609 7.15058C16.6116 7.39949 16.2734 7.53983 15.921 7.53983H11.7809C11.4299 7.53983 11.0915 7.39988 10.8411 7.15063C10.5917 6.90056 10.4519 6.56289 10.4519 6.21292V2.07691C10.4519 1.72571 10.592 1.38819 10.841 1.13923L17.25 2.07691ZM7.15929 16.8604L7.15845 16.8613C6.90987 17.11 6.57212 17.25 6.21912 17.25H2.07898C1.72715 17.25 1.38908 17.1103 1.13933 16.861C0.890196 16.612 0.75 16.2744 0.75 15.9231V11.7871C0.75 11.4371 0.889782 11.0995 1.1392 10.8493C1.38956 10.6001 1.72795 10.4602 2.07898 10.4602H6.21912C6.57144 10.4602 6.90973 10.6005 7.15898 10.8494C7.40848 11.0989 7.5481 11.4363 7.5481 11.7871V15.9231C7.5481 16.275 7.40824 16.6121 7.15929 16.8604Z" stroke="#434343" stroke-width="1.5"/>
</svg>
