<svg width="16" height="17" viewBox="0 0 16 17" fill="none" xmlns="http://www.w3.org/2000/svg">
<path d="M1.54684 11.8351C0.616285 10.2643 0.290787 8.40773 0.631456 6.61385C0.972126 4.81997 1.95553 3.21219 3.39706 2.09233C4.83859 0.972477 6.6391 0.417566 8.46058 0.531776C10.2821 0.645985 11.9992 1.42146 13.2897 2.71262C14.5802 4.00378 15.3553 5.72182 15.4695 7.54422C15.5836 9.36662 15.029 11.168 13.9097 12.6103C12.7904 14.0525 11.1834 15.0365 9.39048 15.3773C7.5975 15.7181 5.74183 15.3925 4.17184 14.4614V14.4614L1.57809 15.1962C1.47182 15.2273 1.35915 15.2292 1.25189 15.2018C1.14462 15.1743 1.04671 15.1185 0.96842 15.0402C0.89013 14.9618 0.834342 14.8639 0.806903 14.7565C0.779465 14.6492 0.781386 14.5365 0.812467 14.4302L1.54684 11.8351Z" stroke="#858585" stroke-linecap="round" stroke-linejoin="round"/>
</svg>
