<svg width="13" height="13" viewBox="0 0 13 13" fill="none" xmlns="http://www.w3.org/2000/svg">
<path d="M0.296568 0.29657C0.691991 -0.0988565 1.33289 -0.0988565 1.72811 0.29657L6.5 5.0685L11.2719 0.29657C11.6673 -0.0988565 12.3082 -0.0988565 12.7034 0.29657C13.0989 0.691996 13.0989 1.3329 12.7034 1.72812L7.93154 6.50004L12.7034 11.272C13.0989 11.6674 13.0989 12.3083 12.7034 12.7035C12.308 13.0989 11.6671 13.0987 11.2719 12.7035L6.5 7.93159L1.72811 12.7035C1.33268 13.0987 0.69178 13.0987 0.296568 12.7035C-0.0988559 12.3081 -0.0988559 11.6672 0.296568 11.272L5.06846 6.50004L0.296568 1.72812C-0.0988559 1.33269 -0.0988559 0.691785 0.296568 0.29657Z" fill="#5A5A5A"/>
</svg>
