<svg width="18" height="18" viewBox="0 0 18 18" fill="none" xmlns="http://www.w3.org/2000/svg">
<path fill-rule="evenodd" clip-rule="evenodd" d="M17.9822 13.8544C17.9822 12.7557 17.5449 11.7013 16.7667 10.9245C15.9891 10.1471 14.9336 9.71021 13.8338 9.71021H13.8325C12.732 9.71021 11.6772 10.1471 10.899 10.9245C10.1215 11.7013 9.68424 12.7557 9.68424 13.8544V13.8558C9.68424 14.9551 10.1215 16.0089 10.899 16.7863C11.6772 17.563 12.732 17.9999 13.8325 17.9999H13.8338C14.9336 17.9999 15.9891 17.563 16.7667 16.7863C17.5449 16.0089 17.9822 14.9551 17.9822 13.8558V13.8544ZM8.2981 11.7871C8.2981 11.2368 8.07906 10.7086 7.68894 10.3187C7.29944 9.92976 6.7707 9.71017 6.21912 9.71017H2.07898C1.52815 9.71017 0.999415 9.92976 0.609161 10.3187C0.219817 10.7086 0 11.2368 0 11.7871V15.9231C0 16.4742 0.219809 17.0023 0.609161 17.3914C0.999434 17.7812 1.52815 18 2.07898 18H6.21912C6.77074 18 7.29944 17.7812 7.68894 17.3914C8.07906 17.0023 8.2981 16.4741 8.2981 15.9231V11.7871ZM8.2981 2.09483C8.2981 1.54455 8.07906 1.01634 7.68894 0.62648C7.29944 0.237524 6.7707 0.0179255 6.21912 0.0179255H2.07898C1.52815 0.0179255 0.999415 0.237516 0.609161 0.62648C0.219817 1.01636 0 1.54455 0 2.09483V6.23085C0 6.78192 0.219809 7.31009 0.609161 7.6992C0.999434 8.08893 1.52815 8.30776 2.07898 8.30776H6.21912C6.77074 8.30776 7.29944 8.08894 7.68894 7.6992C8.07906 7.31009 8.2981 6.78188 8.2981 6.23085V2.09483ZM18 2.07691C18 1.52584 17.781 0.997668 17.3908 0.608554C17.0013 0.218823 16.4726 0 15.921 0H11.7809C11.2301 0 10.7013 0.218815 10.3111 0.608554C9.92172 0.997664 9.7019 1.52588 9.7019 2.07691V6.21292C9.7019 6.76321 9.92171 7.29141 10.3111 7.68128C10.7013 8.07023 11.2301 8.28983 11.7809 8.28983H15.921C16.4726 8.28983 17.0013 8.07024 17.3908 7.68128C17.781 7.29139 18 6.76321 18 6.21292V2.07691Z" fill="#452971"/>
</svg>
