<svg width="15" height="15" viewBox="0 0 15 15" fill="none" xmlns="http://www.w3.org/2000/svg">
<rect width="15" height="15" fill="white" fill-opacity="0.01"/>
<path d="M4.20936 7.70102C4.09652 7.58101 3.94087 7.5104 3.77624 7.50455C3.61162 7.49869 3.45134 7.55807 3.33026 7.66976C3.20918 7.78145 3.13709 7.93642 3.12966 8.10098C3.12224 8.26554 3.18008 8.42638 3.29061 8.54852L5.54811 10.9979C5.88374 11.3266 6.38374 11.3266 6.69436 11.0166L6.92186 10.7923C7.74344 9.98428 8.56407 9.17533 9.38374 8.3654L9.40874 8.3404C10.1748 7.58544 10.9369 6.82647 11.695 6.06352C11.8083 5.94489 11.8704 5.78648 11.868 5.62246C11.8655 5.45843 11.7986 5.30195 11.6818 5.18678C11.565 5.07161 11.4076 5.00698 11.2436 5.00684C11.0795 5.00669 10.922 5.07105 10.805 5.18602C10.0504 5.94498 9.29206 6.7002 8.52999 7.45165L8.50499 7.47665C7.71953 8.25308 6.93307 9.0285 6.14561 9.8029L4.20936 7.70102Z" fill="white" stroke="white"/>
</svg>
