<svg width="17" height="13" viewBox="0 0 17 13" fill="none" xmlns="http://www.w3.org/2000/svg">
<path fill-rule="evenodd" clip-rule="evenodd" d="M9.29752 2.16668C9.61199 0.920714 10.7213 0 12.0416 0C13.3617 0 14.4711 0.920714 14.7856 2.16668H16.2911C16.6825 2.16668 16.9998 2.48719 16.9998 2.88886C16.9998 3.28775 16.6829 3.61117 16.2911 3.61117H14.7856C14.4711 4.85713 13.3618 5.77785 12.0416 5.77785C10.7213 5.77785 9.61202 4.85713 9.29752 3.61117H0.708763C0.317316 3.61117 0 3.29053 0 2.88886C0 2.48998 0.316952 2.16668 0.708763 2.16668H9.29752ZM2.21445 9.38883C2.52891 8.14287 3.63823 7.22215 4.9584 7.22215C6.27866 7.22215 7.38798 8.14287 7.70247 9.38883H16.2912C16.6827 9.38883 17 9.70947 17 10.1111C17 10.51 16.683 10.8333 16.2912 10.8333H7.70247C7.38801 12.0793 6.27869 13 4.9584 13C3.63826 13 2.52894 12.0793 2.21445 10.8333H0.708946C0.317499 10.8333 0.00018227 10.5128 0.00018227 10.1111C0.00018227 9.71225 0.317134 9.38883 0.708946 9.38883H2.21445ZM4.9584 11.5555C5.74078 11.5555 6.37508 10.9089 6.37508 10.1111C6.37508 9.3134 5.74078 8.66665 4.9584 8.66665C4.17602 8.66665 3.54184 9.3134 3.54184 10.1111C3.54184 10.9089 4.17602 11.5555 4.9584 11.5555ZM12.0418 4.33335C12.8242 4.33335 13.4583 3.6866 13.4583 2.88886C13.4583 2.09112 12.8242 1.44449 12.0418 1.44449C11.2594 1.44449 10.6251 2.09112 10.6251 2.88886C10.6251 3.6866 11.2594 4.33335 12.0418 4.33335Z" fill="#8C9199"/>
</svg>
