<svg width="18" height="19" viewBox="0 0 18 19" fill="none" xmlns="http://www.w3.org/2000/svg">
<path d="M16.9746 8.74887L9.6992 16.0243C8.80791 16.9156 7.59906 17.4163 6.33858 17.4163C5.0781 17.4163 3.86925 16.9156 2.97795 16.0243C2.08666 15.133 1.58594 13.9241 1.58594 12.6637C1.58594 11.4032 2.08666 10.1943 2.97795 9.30304L10.2534 2.02762C10.8476 1.43342 11.6535 1.09961 12.4938 1.09961C13.3341 1.09961 14.14 1.43342 14.7342 2.02762C15.3284 2.62182 15.6622 3.42772 15.6622 4.26804C15.6622 5.10836 15.3284 5.91426 14.7342 6.50845L7.45087 13.7839C7.15377 14.081 6.75082 14.2479 6.33066 14.2479C5.9105 14.2479 5.50755 14.081 5.21045 13.7839C4.91336 13.4868 4.74645 13.0838 4.74645 12.6637C4.74645 12.2435 4.91336 11.8406 5.21045 11.5435L11.9317 4.83012" stroke="#A39DAD" stroke-width="1.5" stroke-linecap="round" stroke-linejoin="round"/>
</svg>
