<svg width="17" height="17" viewBox="0 0 17 17" fill="none" xmlns="http://www.w3.org/2000/svg">
<path d="M8.53847 11.7386C9.5879 11.7386 10.48 12.4121 10.8061 13.3505L10.8452 13.3439L10.9385 13.3386H15.7385C16.1803 13.3386 16.5385 13.6967 16.5385 14.1386C16.5385 14.5488 16.2296 14.887 15.8318 14.9332L15.7385 14.9386H10.9385C10.8933 14.9386 10.8489 14.9348 10.8057 14.9276C10.48 15.865 9.58793 16.5386 8.53847 16.5386C7.48901 16.5386 6.59695 15.865 6.27084 14.9266L6.23178 14.9332L6.13847 14.9386H1.33847C0.896616 14.9386 0.538473 14.5804 0.538473 14.1386C0.538473 13.7283 0.847302 13.3901 1.24516 13.3439L1.33846 13.3386H6.13846C6.18366 13.3386 6.22808 13.3424 6.27127 13.3495C6.59693 12.4121 7.48902 11.7386 8.53847 11.7386ZM8.53847 13.3386C8.09662 13.3386 7.73847 13.6967 7.73847 14.1386C7.73847 14.5804 8.09662 14.9386 8.53847 14.9386C8.98033 14.9386 9.33847 14.5804 9.33847 14.1386C9.33847 13.6967 8.98033 13.3386 8.53847 13.3386ZM2.93847 6.13857C3.9879 6.13857 4.87999 6.81212 5.2061 7.75052L5.24517 7.74393L5.33847 7.73858H15.7385C16.1803 7.73858 16.5385 8.09672 16.5385 8.53858C16.5385 8.94883 16.2296 9.287 15.8318 9.3332L15.7385 9.33856H5.33848C5.29328 9.33856 5.24886 9.33477 5.20567 9.32762C4.88001 10.265 3.98793 10.9386 2.93847 10.9386C1.61301 10.9386 0.538467 9.86402 0.538467 8.53857C0.538467 7.21311 1.61302 6.13857 2.93847 6.13857ZM2.93847 7.73857C2.49662 7.73857 2.13847 8.09672 2.13847 8.53858C2.13847 8.98043 2.49662 9.33857 2.93847 9.33857C3.38033 9.33857 3.73847 8.98043 3.73847 8.53858C3.73847 8.09672 3.38033 7.73857 2.93847 7.73857ZM11.7385 0.538574C12.7879 0.538574 13.68 1.21212 14.0061 2.15052L14.0452 2.14393L14.1385 2.13858H15.7385C16.1803 2.13858 16.5385 2.49672 16.5385 2.93858C16.5385 3.34883 16.2296 3.687 15.8318 3.7332L15.7385 3.73856H14.1385C14.0933 3.73856 14.0489 3.73477 14.0057 3.72762C13.68 4.66502 12.7879 5.33857 11.7385 5.33857C10.689 5.33857 9.79695 4.66502 9.47084 3.72662L9.43178 3.73321L9.33847 3.73857H1.33847C0.896616 3.73857 0.538473 3.38042 0.538473 2.93857C0.538473 2.52831 0.847302 2.19014 1.24516 2.14394L1.33846 2.13858H9.33846C9.38366 2.13858 9.42808 2.14237 9.47127 2.14952C9.79693 1.21212 10.689 0.538574 11.7385 0.538574ZM11.7385 2.13857C11.2966 2.13857 10.9385 2.49672 10.9385 2.93857C10.9385 3.38043 11.2966 3.73857 11.7385 3.73857C12.1803 3.73857 12.5385 3.38043 12.5385 2.93857C12.5385 2.49672 12.1803 2.13857 11.7385 2.13857Z" fill="#8C9199"/>
</svg>
