<svg width="18" height="15" viewBox="0 0 18 15" fill="none" xmlns="http://www.w3.org/2000/svg">
<path d="M9 14.2988C9 14.2988 1.1875 9.92383 1.1875 4.61133C1.1875 3.67218 1.51289 2.76204 2.1083 2.03575C2.70371 1.30947 3.53236 0.811908 4.45328 0.627725C5.37419 0.443543 6.33047 0.584116 7.15943 1.02553C7.98838 1.46694 8.63879 2.18193 9 3.04883V3.04883C9.36121 2.18193 10.0116 1.46694 10.8406 1.02553C11.6695 0.584116 12.6258 0.443543 13.5467 0.627725C14.4676 0.811908 15.2963 1.30947 15.8917 2.03575C16.4871 2.76204 16.8125 3.67218 16.8125 4.61133C16.8125 9.92383 9 14.2988 9 14.2988Z" stroke="#C0C0C0" stroke-linecap="round" stroke-linejoin="round"/>
</svg>
