<svg width="20" height="20" viewBox="0 0 20 20" fill="none" xmlns="http://www.w3.org/2000/svg">
<path d="M11.0394 0.413556C10.7585 0.147977 10.3866 0 10 0C9.61345 0 9.24153 0.147977 8.96062 0.413556L1.63185 7.33988C1.40745 7.55223 1.22877 7.80816 1.10676 8.09199C0.984743 8.37582 0.921967 8.68157 0.922273 8.99052V17.4177C0.922674 18.0193 1.16195 18.5962 1.58751 19.0215C2.01307 19.4467 2.59008 19.6856 3.19171 19.6856H5.46115C6.06304 19.6856 6.64028 19.4465 7.06588 19.0209C7.49149 18.5953 7.73059 18.0181 7.73059 17.4162V13.6338C7.73059 13.4332 7.81029 13.2407 7.95215 13.0989C8.09402 12.957 8.28643 12.8773 8.48707 12.8773H11.513C11.7136 12.8773 11.906 12.957 12.0479 13.0989C12.1898 13.2407 12.2695 13.4332 12.2695 13.6338V17.4162C12.2695 18.0181 12.5086 18.5953 12.9342 19.0209C13.3598 19.4465 13.937 19.6856 14.5389 19.6856H16.8083C17.4102 19.6856 17.9875 19.4465 18.4131 19.0209C18.8387 18.5953 19.0778 18.0181 19.0778 17.4162V8.989C19.0777 8.6802 19.0146 8.37467 18.8923 8.09111C18.77 7.80755 18.5912 7.55192 18.3667 7.33988L11.0394 0.41053V0.413556Z" fill="#A39DAD"/>
</svg>
