<svg width="19" height="19" viewBox="0 0 19 19" fill="none" xmlns="http://www.w3.org/2000/svg">
<path d="M11.5337 8.73406C11.5337 9.24954 11.1157 9.66734 10.6003 9.66734V13.4006C10.6003 13.9161 10.1825 14.3341 9.66698 14.3341C9.1515 14.3341 8.7337 13.9161 8.7337 13.4006V8.73422C8.7337 8.21874 9.1515 7.80078 9.66698 7.80078H10.6003C11.1157 7.80078 11.5337 8.21874 11.5337 8.73422V8.73406Z" fill="#434343"/>
<path d="M9.66686 5C9.15138 5 8.73358 5.41796 8.73358 5.93344C8.73358 6.44892 9.15138 6.86672 9.66686 6.86672C10.1823 6.86672 10.6001 6.44892 10.6001 5.93344C10.6001 5.41796 10.1823 5 9.66686 5Z" fill="#434343"/>
<path fill-rule="evenodd" clip-rule="evenodd" d="M0.333618 9.66717C0.333618 4.51238 4.51201 0.333984 9.66681 0.333984C14.8216 0.333984 19 4.51238 19 9.66717C19 14.822 14.8216 19.0004 9.66681 19.0004C4.51201 19.0004 0.333618 14.822 0.333618 9.66717ZM9.66681 2.20038C5.54321 2.20038 2.20002 5.54334 2.20002 9.66717C2.20002 13.791 5.54297 17.134 9.66681 17.134C13.7906 17.134 17.1336 13.791 17.1336 9.66717C17.1336 5.54334 13.7906 2.20038 9.66681 2.20038Z" fill="#434343"/>
</svg>
