<svg width="10" height="14" viewBox="0 0 10 14" fill="none" xmlns="http://www.w3.org/2000/svg">
<path d="M0.0823236 12.8166L1.61956 9.17808C1.82351 9.26717 2.05877 9.32664 2.29401 9.32664C2.38811 9.32664 2.48221 9.31182 2.57631 9.29691H2.60771L2.62336 9.32664C2.89012 9.80182 3.43919 10.0989 4.0353 10.0989C4.19221 10.0989 4.36477 10.0692 4.50592 10.0246L2.89011 13.8711C2.84306 13.9899 2.67051 14.0047 2.60781 13.8859L1.83916 12.6087C1.80775 12.5642 1.7607 12.5494 1.71365 12.5642L0.270509 12.9948C0.145004 13.0394 0.0352758 12.9206 0.0823236 12.8166ZM7.40784 13.9305L8.1765 12.6533C8.2079 12.6087 8.25495 12.5939 8.302 12.6087L9.74515 13.0393C9.87065 13.0839 9.99615 12.9651 9.93335 12.8462L8.39612 9.17801C8.19216 9.2671 7.9569 9.32656 7.70589 9.32656C7.61179 9.32656 7.51769 9.31175 7.42359 9.29683H7.39219L7.37654 9.32656C7.09424 9.81665 6.54517 10.1137 5.96483 10.1137C5.80792 10.1137 5.65113 10.0839 5.49421 10.0394L7.12553 13.9007C7.17258 14.0196 7.34513 14.0344 7.40783 13.9304L7.40784 13.9305ZM9.77645 4.12868C10.0745 4.38114 10.0745 4.81189 9.77645 5.04943L9.58825 5.2128C9.38429 5.39098 9.30595 5.67316 9.41569 5.9108L9.50979 6.13353C9.6667 6.47508 9.46274 6.86126 9.08623 6.96517L8.83523 7.02453C8.56857 7.0988 8.38038 7.32152 8.36461 7.5889L8.34896 7.82654C8.33331 8.15327 8.03526 8.40574 7.70579 8.40574C7.67439 8.40574 7.62734 8.40574 7.59594 8.39092L7.34493 8.34638C7.31353 8.34638 7.26648 8.33156 7.23507 8.33156C6.99982 8.33156 6.78022 8.45039 6.67036 8.64349L6.54486 8.8514C6.41935 9.05931 6.19976 9.16333 5.98015 9.16333C5.85465 9.16333 5.7135 9.11879 5.60365 9.04451L5.3997 8.89595C5.28984 8.82168 5.14869 8.77713 5.0232 8.77713C4.8977 8.77713 4.75654 8.82168 4.6467 8.89595L4.44274 9.02959C4.33288 9.10387 4.19173 9.14841 4.06624 9.14841C3.83099 9.14841 3.61139 9.02959 3.50153 8.82169L3.37603 8.61378C3.26617 8.40586 3.04656 8.28705 2.81132 8.28705C2.77992 8.28705 2.73287 8.28705 2.70146 8.30186L2.45046 8.34641C2.41905 8.34641 2.372 8.36122 2.3406 8.36122C1.9955 8.36122 1.7132 8.10877 1.69743 7.78203L1.63539 7.57412C1.61974 7.30685 1.43144 7.08403 1.16477 7.00975L0.913767 6.95039C0.537267 6.84638 0.349058 6.4603 0.490207 6.11875L0.584309 5.89602C0.694166 5.65838 0.631359 5.37618 0.411754 5.19802L0.223551 5.03465C-0.0745171 4.78219 -0.0745171 4.35144 0.223551 4.1139L0.411754 3.95053C0.615709 3.77235 0.694052 3.49017 0.584309 3.25253L0.490207 3.0298C0.333299 2.68825 0.537258 2.30207 0.913767 2.19816L1.16477 2.1388C1.43143 2.06453 1.61962 1.84181 1.63539 1.57443L1.65104 1.33679C1.66668 1.01006 1.96474 0.757594 2.29421 0.757594C2.32561 0.757594 2.37266 0.757594 2.40406 0.772407L2.65507 0.816953C2.68647 0.816953 2.73352 0.831767 2.76493 0.831767C3.00018 0.831767 3.21977 0.712944 3.32963 0.519839L3.45514 0.311928C3.58064 0.104017 3.80024 0 4.01985 0C4.14535 0 4.2865 0.0445455 4.39635 0.118823L4.6003 0.267377C4.71016 0.341654 4.85131 0.3862 4.9768 0.3862C5.1023 0.3862 5.24346 0.341654 5.3533 0.267377L5.55726 0.13374C5.66712 0.059463 5.80827 0.0149175 5.93376 0.0149175C6.16901 0.0149175 6.38861 0.13374 6.49847 0.341643L6.62397 0.549555C6.73383 0.757466 6.95344 0.87628 7.18868 0.87628C7.22008 0.87628 7.26713 0.87628 7.29854 0.861467L7.54954 0.816921C7.58095 0.816921 7.628 0.802107 7.6594 0.802107C8.0045 0.802107 8.2868 1.05456 8.30257 1.3813L8.31822 1.61895C8.33386 1.88621 8.52217 2.10903 8.78883 2.18332L9.03984 2.24268C9.41634 2.34669 9.60455 2.73277 9.4634 3.07432L9.41569 3.26731C9.30584 3.50495 9.36864 3.78715 9.58825 3.96531L9.77645 4.12868ZM7.07851 3.72767L6.29419 2.98512L4.49021 4.67815L3.73729 3.95042L2.95298 4.69297L3.70589 5.42071L4.49021 6.16327L5.27453 5.42071L7.07851 3.72767Z" fill="#FF5C00"/>
</svg>
