<svg width="18" height="18" viewBox="0 0 18 18" fill="none" xmlns="http://www.w3.org/2000/svg">
<g clip-path="url(#clip0_802_911)">
<path d="M11.2856 3.75C12.0182 3.89292 12.6914 4.25119 13.2192 4.77895C13.7469 5.30671 14.1052 5.97995 14.2481 6.7125M11.2856 0.75C12.8076 0.919077 14.2268 1.60063 15.3103 2.68276C16.3938 3.76488 17.0771 5.18326 17.2481 6.705M16.4981 12.69V14.94C16.499 15.1489 16.4562 15.3556 16.3725 15.547C16.2888 15.7384 16.1661 15.9102 16.0122 16.0514C15.8583 16.1926 15.6765 16.3001 15.4787 16.367C15.2808 16.4339 15.0711 16.4588 14.8631 16.44C12.5552 16.1892 10.3384 15.4006 8.39062 14.1375C6.57849 12.986 5.04212 11.4496 3.89062 9.6375C2.6231 7.6809 1.8343 5.45325 1.58812 3.135C1.56938 2.9276 1.59402 2.71857 1.66049 2.52122C1.72696 2.32387 1.8338 2.14252 1.97419 1.98872C2.11459 1.83491 2.28547 1.71203 2.47596 1.62789C2.66645 1.54375 2.87237 1.5002 3.08062 1.5H5.33062C5.6946 1.49642 6.04746 1.62531 6.32344 1.86265C6.59942 2.09999 6.77968 2.42959 6.83062 2.79C6.92559 3.51005 7.10171 4.21705 7.35562 4.8975C7.45653 5.16594 7.47837 5.45769 7.41855 5.73816C7.35873 6.01863 7.21977 6.27608 7.01812 6.48L6.06562 7.4325C7.13329 9.31016 8.68796 10.8648 10.5656 11.9325L11.5181 10.98C11.722 10.7784 11.9795 10.6394 12.26 10.5796C12.5404 10.5198 12.8322 10.5416 13.1006 10.6425C13.7811 10.8964 14.4881 11.0725 15.2081 11.1675C15.5724 11.2189 15.9052 11.4024 16.143 11.6831C16.3809 11.9638 16.5072 12.3222 16.4981 12.69Z" stroke="white" stroke-width="2" stroke-linecap="round" stroke-linejoin="round"/>
</g>
<defs>
<clipPath id="clip0_802_911">
<rect width="18" height="18" fill="white"/>
</clipPath>
</defs>
</svg>
