<svg width="13" height="13" viewBox="0 0 13 13" fill="none" xmlns="http://www.w3.org/2000/svg">
<path d="M12.2708 0H7.52083C7.30233 0 7.125 0.177329 7.125 0.395834V6.72918C7.125 6.94768 7.30233 7.12501 7.52083 7.12501H12.2708C12.4893 7.12501 12.6667 6.94768 12.6667 6.72918V0.395834C12.6667 0.177329 12.4893 0 12.2708 0Z" fill="#D8DBE1"/>
<path d="M12.2708 8.7085H7.52083C7.30233 8.7085 7.125 8.88583 7.125 9.10433V12.271C7.125 12.4895 7.30233 12.6668 7.52083 12.6668H12.2708C12.4893 12.6668 12.6667 12.4895 12.6667 12.271V9.10433C12.6667 8.88583 12.4893 8.7085 12.2708 8.7085Z" fill="#D8DBE1"/>
<path d="M5.54168 12.2707V5.93734C5.54168 5.71883 5.36435 5.5415 5.14584 5.5415H0.395834C0.177329 5.5415 0 5.71883 0 5.93734V12.2707C0 12.4892 0.177329 12.6665 0.395834 12.6665H5.14584C5.36435 12.6665 5.54168 12.4892 5.54168 12.2707Z" fill="#D8DBE1"/>
<path d="M5.14584 3.95834H0.395834C0.177329 3.95834 0 3.78101 0 3.56251V0.395834C0 0.177329 0.177329 0 0.395834 0H5.14584C5.36435 0 5.54168 0.177329 5.54168 0.395834V3.56251C5.54168 3.78101 5.36435 3.95834 5.14584 3.95834Z" fill="#D8DBE1"/>
</svg>
