<svg width="13" height="13" viewBox="0 0 13 13" fill="none" xmlns="http://www.w3.org/2000/svg">
<path d="M6 0.428571L6 5.57143C6 5.808 6.31359 6 6.7 6L12.3 6C12.6864 6 13 5.808 13 5.57143L13 0.428571C13 0.191995 12.6864 -3.11757e-07 12.3 -2.93741e-07L6.7 -3.26378e-08C6.31359 -1.46214e-08 6 0.191995 6 0.428571Z" fill="#434343"/>
<path d="M12.6111 7L6.38889 7C6.17422 7 6 7.192 6 7.42857L6 12.5714C6 12.808 6.17422 13 6.38889 13L12.6111 13C12.8258 13 13 12.808 13 12.5714L13 7.42857C13 7.19199 12.8258 7 12.6111 7Z" fill="#434343"/>
<path d="M4 0.928572L4 12.0714C4 12.584 3.8208 13 3.6 13L0.4 13C0.179195 13 -1.7047e-08 12.584 -3.80523e-08 12.0714L-4.9468e-07 0.928572C-5.15686e-07 0.415989 0.179195 -8.35507e-09 0.399999 -1.86502e-08L3.6 -1.67852e-07C3.8208 -1.78147e-07 4 0.415989 4 0.928572Z" fill="#434343"/>
</svg>
