<svg width="14" height="14" viewBox="0 0 14 14" fill="none" xmlns="http://www.w3.org/2000/svg">
<path d="M6.87348 4.46056C6.78155 4.56094 6.6556 4.61857 6.52327 4.62092C6.39093 4.62343 6.2632 4.57018 6.16815 4.47325L4.00268 2.26646V11.22C4.00268 11.5106 3.7793 11.7462 3.50364 11.7462C3.22798 11.7462 3.0046 11.5106 3.0046 11.22V2.26646L0.839127 4.47325C0.640104 4.66868 0.329098 4.66007 0.140167 4.45383C-0.0489056 4.24743 -0.0463766 3.91952 0.145811 3.71655L3.15073 0.65425L3.15088 0.654094L3.15697 0.647986L3.16158 0.644854V0.644698C3.20405 0.60179 3.25351 0.567181 3.30742 0.542438L3.30832 0.541968C3.31218 0.540246 3.31634 0.539463 3.32005 0.537897C3.32436 0.536018 3.32881 0.535235 3.33342 0.533669V0.533512C3.38362 0.514094 3.43634 0.503132 3.48981 0.501409L3.49754 0.500626L3.50362 0.5L3.50957 0.500626C3.51283 0.500626 3.5158 0.501566 3.51907 0.501566C3.57224 0.503445 3.62482 0.514251 3.67487 0.533825C3.67903 0.535391 3.68304 0.536174 3.68705 0.537897C3.69106 0.539619 3.69492 0.540246 3.69864 0.541968L3.70087 0.543221V0.543065C3.75448 0.567807 3.80349 0.60226 3.84568 0.644855L3.85028 0.647987L3.85637 0.654094L3.85652 0.654251L6.86144 3.71655C7.05957 3.91856 7.06493 4.25166 6.87348 4.46056ZM13.86 9.53947C13.7681 9.43925 13.6422 9.38146 13.5098 9.37912C13.3776 9.37677 13.2498 9.42985 13.1547 9.52679L10.9892 11.7336V2.78005C10.9892 2.4894 10.7659 2.25388 10.4902 2.25388C10.2145 2.25388 9.99115 2.4894 9.99115 2.78005V11.7336L7.82568 9.52679V9.52663C7.62666 9.3312 7.31565 9.33981 7.12672 9.54621C6.93765 9.75245 6.94018 10.0804 7.13237 10.2835L10.1373 13.3458V13.3459L10.1434 13.3521C10.1449 13.3535 10.1466 13.3539 10.1481 13.3553C10.1645 13.3716 10.1818 13.3867 10.2 13.4004C10.2037 13.4033 10.2069 13.4072 10.2108 13.4098L10.211 13.41C10.238 13.4293 10.2668 13.4457 10.297 13.4592L10.3039 13.4617C10.3068 13.4629 10.3099 13.4634 10.3127 13.4645C10.3223 13.4684 10.3324 13.4708 10.3424 13.474C10.3584 13.48 10.3746 13.4853 10.3911 13.4895C10.4563 13.5035 10.5236 13.5035 10.5886 13.4895C10.6075 13.4848 10.6259 13.4789 10.644 13.4719C10.6516 13.4692 10.6595 13.4675 10.6669 13.4645C10.6699 13.4632 10.673 13.4628 10.676 13.4615L10.6827 13.4592H10.6828C10.7131 13.4459 10.7421 13.4293 10.7693 13.4098C10.7716 13.4081 10.7736 13.4058 10.7759 13.404C10.7955 13.3893 10.8143 13.373 10.8316 13.3555L10.8364 13.3522L10.8425 13.3461V13.3459L13.8474 10.2836V10.2835C13.9427 10.1866 13.9976 10.0538 13.9999 9.91423C14.0022 9.7747 13.952 9.63985 13.86 9.53947Z" fill="#452971"/>
</svg>
