<svg width="14" height="14" viewBox="0 0 14 14" fill="none" xmlns="http://www.w3.org/2000/svg">
<path d="M13.741 12.759L10.5889 9.60689C11.5242 8.42111 11.9711 6.92274 11.8382 5.41832C11.7052 3.9139 11.0025 2.51713 9.87366 1.51376C8.74485 0.510392 7.27532 -0.0237437 5.76568 0.0206247C4.25605 0.0649932 2.82042 0.684512 1.75249 1.75244C0.684558 2.82038 0.065039 4.256 0.0206705 5.76564C-0.023698 7.27527 0.510437 8.7448 1.51381 9.87361C2.51718 11.0024 3.91394 11.7052 5.41836 11.8381C6.92278 11.9711 8.42115 11.5242 9.60694 10.5888L12.759 13.7409L13.741 12.759ZM5.95833 10.4722C5.06556 10.4722 4.19285 10.2074 3.45055 9.71144C2.70824 9.21545 2.12968 8.51048 1.78804 7.68567C1.44639 6.86087 1.357 5.95327 1.53117 5.07767C1.70534 4.20206 2.13525 3.39776 2.76653 2.76648C3.3978 2.1352 4.2021 1.70529 5.07771 1.53113C5.95332 1.35696 6.86091 1.44635 7.68572 1.78799C8.51052 2.12964 9.2155 2.70819 9.71149 3.4505C10.2075 4.1928 10.4722 5.06552 10.4722 5.95828C10.4707 7.15499 9.99471 8.30226 9.14851 9.14846C8.30231 9.99466 7.15503 10.4707 5.95833 10.4722Z" fill="#8C9199"/>
</svg>
